<?xml version="1.0" encoding="UTF-8" standalone="no"?>
<!-- Created with Inkscape (http://www.inkscape.org/) -->
<svg id="svg2" xmlns:rdf="http://www.w3.org/1999/02/22-rdf-syntax-ns#" xmlns="http://www.w3.org/2000/svg" height="101" viewBox="0 0 354 101" width="354" version="1.1" xmlns:cc="http://creativecommons.org/ns#" xmlns:dc="http://purl.org/dc/elements/1.1/">
 <metadata id="metadata8">
  <rdf:RDF>
   <cc:Work rdf:about="">
    <dc:format>image/svg+xml</dc:format>
    <dc:type rdf:resource="http://purl.org/dc/dcmitype/StillImage"/>
    <dc:title/>
   </cc:Work>
  </rdf:RDF>
 </metadata>
 <g id="g3354" transform="matrix(1.0302 0 0 1.2169 -5.0941 -8.7549)">
  <path id="path3368" fill="#f6b79b" d="m26 50.406v-30.593l-10.001.343-10.001.344.0010-4.75.0010-4.75h25c23.632 0 25 .10093 25 1.8448 0 1.7807.19990 1.7769 5.75-.10695 7.2312-2.4545 16.559-1.9721 24 1.2413l5.25 2.2672 5.25-2.353c7.9663-3.5704 20.109-3.3938 28.25.41081 6.8644 3.2081 11.515 7.2669 15.63 13.642 4.15 6.426 3.87 8.054-1.38 8.054-3.9132 0-4.5314-.37835-7.7612-4.75-4.9683-6.7247-12.267-10.478-20.326-10.453-8.6161.02661-14.217 2.5054-10.647 4.712 1.18.734 4.98 7.934 4.98 9.451 0 .575-2.14 1.04-4.77 1.04-4.431 0-4.911-.252-6.66-3.5-1.037-1.925-2.231-3.5-2.654-3.5-.42294 0-2.0391 2.5875-3.5914 5.75-3.7258 7.5903-3.8104 15.888-.23309 22.839 1.3465 2.6165 2.962 4.9285 3.5899 5.1378.62797.20932 1.9535-.99366 2.9457-2.6733 1.617-2.738 2.307-3.054 6.653-3.054 4.5617 0 4.812.13451 4.1872 2.25-.36554 1.2375-1.7459 3.9279-3.0674 5.9786-1.32 2.05-2.4 3.942-2.4 4.203 0 .89863 7.508 2.5573 11.601 2.5629 7.9399.0108 16.354-4.4359 20.954-11.074 2.47-3.572 3.11-3.921 7.18-3.921 4.3402 0 4.4527.07843 3.8064 2.6535-1.8663 7.4359-11.724 16.835-20.911 19.939-6.8751 2.3224-20.57 1.5786-26.39-1.4334l-4.245-2.2-4.25 2.266c-3.637 1.939-5.763 2.266-14.75 2.27-9.134.004-11.15-.315-15.5-2.452-6.39-3.14-13.403-10.153-16.543-16.543-2.137-4.35-2.456-6.366-2.452-15.5.005-11.56 1.256-15.241 7.65-22.524l3.143-3.579-6.399.301-6.399.302-.265 30.25-.264 30.25h-4.486-4.485v-30.594zm53.25 20.541c2.062-.572 3.75-1.288 3.75-1.59 0-.301-.937-1.865-2.083-3.474-7.486-10.513-7.675-27.593-.422-38.281 1.378-2.03 2.505-3.907 2.505-4.171 0-1.232-6.085-2.617-11.572-2.634-17.564-.055-29.618 17.073-23.973 34.067 2.103 6.3316 8.8206 13.359 14.789 15.472 5.0823 1.7988 11.855 2.0425 17.007.61189zm76.25 8.0651c-13.867-9.1257-3.2399-30.386 12.234-24.476 3.9237 1.4985 8.2489 6.0601 8.2622 8.7137.008 1.6124-7.2054.65529-9.8614-1.3084-2.3553-1.7413-3.1793-1.8784-5.3492-.88973-2.9802 1.3579-5.0066 5.1505-4.1068 7.6863 1.878 5.2927 7.4604 6.9754 10.821 3.2618 2.2885-2.5288 8.5-2.8082 8.5-.38235 0 .88971-1.7471 3.3647-3.8824 5.5-3.4496 3.4496-4.4249 3.8816-8.75 3.8758-3.1578-.0043-5.9214-.70011-7.8676-1.9809zm30.423-.93556c-7.4664-7.4664.48053-20.052 10.136-16.052 6.6216 2.7428 8.1575 10.913 3.0177 16.052-4.0343 4.0343-9.1195 4.0343-13.154 0zm9.0382-5.0045c2.06-3.843-1.72-6.914-4.76-3.872-1.5815 1.5815-1.5146 2.3425.37143 4.2286 2.0691 2.0691 3.1382 1.9824 4.3898-.35613zm14.04.851c0-6.4885.24303-7.32 2.9231-10 3.2749-3.2749 5.8082-3.6305 10.09-1.4164 3.3856 1.7507 5.2726 7.1865 4.7917 13.803-.28512 3.9226-.51233 4.2105-3.5546 4.5038l-3.25.31336v-6.4564c0-4.5628-.4042-6.6115-1.3781-6.9852-2.42-.931-3.62 1.557-3.62 7.514 0 5.7778-.0115 5.8-3 5.8h-3v-7.0769zm25-.23452c0-5.8873.38299-7.7225 1.9662-9.4219 3.82-4.1003 9.2221-4.1278 13.006-.06602 1.66 1.776 2.03 3.526 2.03 9.489v7.311h-3-3v-6.393c0-4.509-.40615-6.5489-1.3781-6.9219-2.42-.930-3.62 1.558-3.62 7.515 0 5.7778-.0115 5.8-3 5.8h-3v-7.3114zm26.923 4.3884c-4.9104-4.9104-3.52-12.617 2.8193-15.625 3.0109-1.4288 3.9276-1.4679 6.9914-.29819 1.9394.74040 4.1311 2.2585 4.8704 3.3736 1.237 1.8658.9676 2.2788-3.38 5.18-4.336 2.8935-4.8307 3.0145-6.02 1.4725-1.0985-1.4242-.96745-1.9465.86079-3.43 2.1264-1.7255 2.1279-1.75.1132-1.75-2.5075 0-3.683 3.1881-2.1984 5.9622 1.3719 2.5634 4.5385 2.6232 6.6767.12604 1.3398-1.5648 2.064-1.7171 3.9902-.83948 2.7921 1.2722 2.8357 1.6009.58109 4.3842-4.2393 5.2335-10.888 5.8608-15.305 1.444zm26.378 1.1508c-7.0514-5.5412-4.0936-16.414 4.8606-17.867 2.7746-.45025 4.0732-.03417 6.6434 2.1285 3.9484 3.3223 4.2819 6.5104.68111 6.5104-1.3825 0-3.3478-.52102-4.3675-1.1578-3.9479-2.4655-7.169 2.2115-3.5765 5.193 1.1683.96957 1.8232.99927 2.7.12244.64-.636 2.64-1.157 4.46-1.157 4.0513 0 4.3608 2.0301.84545 5.5455-2.9628 2.9628-8.9196 3.2948-12.244.68231zm24.153-.68231c-2.26-2.263-2.45-3.198-2.45-12v-9.545h3.5c3.0667 0 3.5.30952 3.5 2.5 0 1.9504.51155 2.5 2.3268 2.5 2.0165 0 2.2681.40006 1.8865 3-.3108 2.1176-.99521 3-2.3268 3-1.4893 0-1.8865.73686-1.8865 3.5 0 2.8333.38095 3.5 2 3.5 1.5556 0 2 .66667 2 3 0 2.6766-.32828 3-3.0454 3-1.9001 0-3.9686-.92311-5.5-2.4545zm-200.13-25.552c-2.64-1.062-4.32-3.952-4.32-7.427 0-6.191 8.92-9.021 12.82-4.066l1.9665 2.5h105.74 105.74l2.3169-2.5c2.8359-3.06 8.2878-3.4002 10.757-.67126 2.6778 2.9589 2.1419 8.6431-1.0517 11.155-3.2798 2.5799-6.8077 2.0429-9.9953-1.5216l-2.2-2.462h-105.47-105.47l-3 3c-3.1496 3.1496-4.2644 3.433-7.8385 1.993zm54.93-14.515c-1.99-1.405-2.25-2.456-2.25-8.978 0-6.4995.26692-7.5735 2.2225-8.9433 2.99-2.095 5.38-1.96 7.78.443 1.5773 1.5773 2 3.3333 2 8.3089 0 3.5077-.55501 7.0354-1.25 7.9453-1.8932 2.4784-5.9087 3.0566-8.5 1.2238zm-14.25-9.861c0-9.6652-.14342-10.421-2.0736-10.926-1.5922-.41637-1.9985-1.198-1.75-3.3666.3207-2.7991.39302-2.827 8.0736-3.1164l7.75-.29206v3.5421c0 2.875-.38 3.542-2 3.542-1.873 0-2 .66667-2 10.5v10.5h-4-4v-10.383zm28 2.883c0-6.1477-.283-7.5-1.5696-7.5-1.0534 0-1.4645-.73536-1.25-2.2362.27359-1.9146.96672-2.2533 4.8196-2.3554 2.475-.06557 5.0625.08886 5.75.34318 1.77.655 1.56 4.249-.25 4.249-1.2 0-1.5 1.5-1.5 7.5v7.5h-3-3v-7.5zm9.5261 1.1006c1.3034-12.171 1.6471-13.023 5.3269-13.208 3.8539-.19382 4.5221 1.0181 5.5724 10.108.38134 3.3.92193 6.7875 1.2013 7.75.40351 1.3901-.10775 1.75-2.4861 1.75-2.0106 0-3.1443-.57482-3.4514-1.75-.43555-1.6667-.46285-1.6667-.57333 0-.0837 1.2627-.9735 1.75-3.1956 1.75h-3.0796l.68532-6.3994zm6.157-2.7881c-.31922-.79773-.55618-.56078-.60416.60417-.0434 1.0542.19292 1.6448.52522 1.3125.33229-.33229.36781-1.1948.0789-1.9167zm7.31-.254c0-9.7319.56502-11.149 4.009-10.056 1.75.556 1.99 1.521 1.99 8.064 0 5.94.30 7.433 1.5 7.433.83333 0 1.5.88889 1.5 2 0 1.7037-.66667 2-4.5 2h-4.5v-9.441zm29 8.747c-3.25-1.162-4-3.661-4-13.342 0-10.833 1.1-12.964 6.67-12.964 3.8 0 6.33 2.728 6.33 6.829 0 4.3816-3.4805 4.5187-4.35.17126-.63995-3.1998-3.0367-4.0405-4.043-1.4182-.92257 2.4042-.69521 13.731.3074 15.314 1.34 2.107 4.09.515 4.09-2.365 0-1.864.53-2.531 2-2.531 1.5929 0 1.9969.66156 1.9847 3.25-.018 3.81-.70046 5.0378-3.669 6.6003-2.343 1.2333-2.9859 1.2884-5.3157.45572zm12.571-.87745c-2.19-2.194-2.29-17.429-.11-17.429 1.1267 0 1.5243 1.7607 1.75 7.75.16224 4.3053.73654 7.75 1.2921 7.75.55552 0 1.1298-3.4447 1.2921-7.75.22571-5.9893.62329-7.75 1.75-7.75 1.1624 0 1.4579 1.7157 1.4579 8.4648 0 7.3455-.25578 8.6017-1.9343 9.5-2.6279 1.4064-3.6516 1.3065-5.4943-.53624zm11.18.491c-2.08-1.212-2.35-4.92-.36-4.92.76616 0 1.663.70352 1.9929 1.5634.32996.85986 1.0531 1.2833 1.607.94098 1.91-1.178 1-3.456-1.99-5.004-2.4067-1.2445-3-2.199-3-4.8257 0-1.8009.54-3.8143 1.2-4.4743 1.5425-1.5425 5.0575-1.5425 6.6 0 1.6888 1.6888 1.4944 4.8-.3 4.8-.825 0-1.5-.675-1.5-1.5s-.675-1.5-1.5-1.5c-2.5931 0-1.6787 3.8056 1.25 5.2024 3.4576 1.649 4.456 7.4426 1.6376 9.5035-2.1024 1.5373-3.2883 1.5824-5.6376.21404zm20.25-.920c-1.5209-1.5209-2-3.3333-2-7.5657 0-7.014 1.24-9.434 4.84-9.434 4.2 0 5.16 1.696 5.16 9.143 0 5.8347-.29946 6.953-2.2225 8.3-2.86 2.004-3.37 1.965-5.78-.443zm4.8044-8.6803c-.47-7.203-2.8-6.844-2.8.430 0 3.2542.31257 6.2292.69461 6.6113 1.3092 1.3093 2.4142-2.3787 2.1098-7.0416zm-13.8 2.287c0-5.7823-.34062-7.5237-1.5634-7.9929-2.69-1.032-.50-2.614 3.62-2.614 2.84 0 3.94.420 3.94 1.5 0 .825-.5625 1.499-1.25 1.4977-.9183-.0017-1.1627 1.9885-.921 7.5.31 7.036.20 7.502-1.75 7.502-1.92 0-2.08-.573-2.08-7.393zm18-1.607c0-8.0319.19549-9 1.8174-9 1.3315 0 2.3114 1.5371 3.6653 5.75l1.8479 5.75 1.5321-5.75c1.1476-4.3069 1.9845-5.75 3.3347-5.75 1.6033 0 1.8026.99514 1.8026 9 0 7.3333-.27778 9-1.5 9-1.0047 0-1.5337-1.0732-1.6021-3.25l-.10209-3.25-1.0426 3.25c-.65 1.994-1.71 3.25-2.76 3.25-1.0495 0-2.1136-1.2562-2.7532-3.25l-1.0426-3.25-.10209 3.25c-.08 2.177-.61 3.25-1.61 3.25-1.22 0-1.5-1.667-1.5-9zm15 0v-9h4.5c3.3333 0 4.5.38889 4.5 1.5 0 .93333-.94444 1.5-2.5 1.5-1.8333 0-2.5.53333-2.5 2s.66667 2 2.5 2c1.5556 0 2.5.56667 2.5 1.5s-.94444 1.5-2.5 1.5c-2 0-2.5.5-2.5 2.5s.5 2.5 2.5 2.5c1.5556 0 2.5.56667 2.5 1.5 0 1.1111-1.1667 1.5-4.5 1.5h-4.5v-9zm10 0v-9h3.8776c2.1326 0 4.3405.5625 4.9062 1.25.56578.6875 1.04 4.7375 1.0539 9 .0198 6.0691-.28524 7.75-1.4062 7.75-.92 0-1.43-1.064-1.43-3 0-2-.5-3-1.5-3s-1.5 1-1.5 3c0 2.3333-.44444 3-2 3-1.8518 0-2-.66667-2-9zm6.5-3c0-1.2833-.5625-2.5208-1.25-2.75-.82456-.27485-1.25.66111-1.25 2.75s.42544 3.0249 1.25 2.75c.6875-.22917 1.25-1.4667 1.25-2.75z"/>
  <path id="path3366" fill="#a1a1a1" d="m26 50.5v-30.5h-10-10l-.0004-4.25-.0003-4.25 24.751.246c21.675.21568 24.732.43919 24.603 1.799-.08088.85401.36912 1.3325 1 1.0634 10.219-4.3595 21.413-4.4638 29.871-.27836l4.776 2.364 5.245-2.596c4.4032-2.1791 6.6098-2.5959 13.75-2.5971 7.0741-.0012 9.4381.43624 14.051 2.5997 6.8297 3.2034 12.414 7.9967 16.13 13.845 4.14 6.523 3.83 8.054-1.65 8.054-3.8662 0-4.6696-.37377-5.9107-2.75-4.755-9.1035-16.92-14.45-27.644-12.15-2.7242.58423-5.1907 1.4467-5.4811 1.9166-.29041.46989.83054 2.9966 2.491 5.6148 4.16 6.563 3.97 7.368-1.75 7.368-4.431 0-4.911-.252-6.66-3.5-1.037-1.925-2.193-3.5-2.569-3.5-.37598 0-1.9687 2.3611-3.5393 5.2469-3.9132 7.1898-4.0835 16.124-.44228 23.202 1.3859 2.6938 3.0337 5.0692 3.6616 5.2785.62797.20932 1.9535-.99366 2.9457-2.6733 1.617-2.739 2.307-3.055 6.653-3.055 4.5762 0 4.8112.12780 4.1383 2.25-.39242 1.2375-1.8158 3.9968-3.1631 6.1318-2.7421 4.3453-2.3139 5.0967 3.548 6.2253 9.6577 1.8594 20.305-2.1288 25.981-9.7321 3.37-4.509 3.97-4.875 7.93-4.875 5.2407 0 5.3468.81994 1.0366 8.0096-3.787 6.3169-11.21 12.303-18.11 14.604-6.7986 2.2672-20.6 1.5423-26.24-1.3782l-4.1006-2.1232-6.2848 2.5385c-5.403 2.182-7.489 2.489-14.897 2.188-14.076-.571-23.309-6.507-29.562-19.006-3.163-6.323-3.553-7.961-3.553-14.93 0-9.445 2.42-16.697 7.586-22.732l3.57-4.171h-6.578-6.578v30.5 30.5h-4.5-4.5v-30.5zm53.851 20.402c1.732-.604 3.149-1.288 3.149-1.52s-1.087-2.144-2.416-4.248c-7.179-11.373-7.209-27.04-.072-37.556 1.386-2.044 2.285-4.098 1.996-4.566-1.116-1.805-10.363-2.988-15.6-1.995-13.313 2.5248-21.763 13.747-20.663 27.445.84334 10.506 6.9639 18.707 16.503 22.111 4.6068 1.644 12.874 1.803 17.103.32893zm76.149 8.479c-4.5514-2.8509-6.5-6.4656-6.5-12.057 0-6.5024 2.49-10.109 8.7911-12.733 4.4303-1.8449 4.7424-1.8495 9.2318-.13496 3.0164 1.152 5.3171 2.8743 6.5581 4.9095 2.63 4.31 2.48 4.635-2.08 4.635-2.2 0-4-.37777-4-.83948 0-.46172-1.1232-1.3513-2.496-1.9768-6.8476-3.12-12.306 5.871-6.867 11.31 2.1256 2.1256 6.7242 1.8693 8.8631-.49408 2.2885-2.5288 8.5-2.8082 8.5-.38235 0 .88971-1.7471 3.3647-3.8824 5.5-3.4594 3.4594-4.4127 3.8795-8.75 3.8557-2.68-.014-5.99-.731-7.37-1.592zm29.923-1.3039c-7.4204-7.4204.47047-20.056 10.048-16.089 6.5442 2.7107 8.1528 11.043 3.1063 16.089-4.0343 4.0343-9.1195 4.0343-13.154 0zm9.0371-4.5289c1.84-2.222.33-5.548-2.53-5.548-1.34 0-2.43.188-2.43.418 0 .23002-.25088 1.072-.55751 1.8711-.54 1.42 1.91 4.711 3.51 4.711.44337 0 1.3484-.65341 2.0112-1.452zm14.04.375c0-6.4885.24303-7.32 2.9231-10 3.2749-3.2749 5.8082-3.6305 10.09-1.4164 3.3856 1.7507 5.2726 7.1865 4.7917 13.803-.28512 3.9226-.51233 4.2105-3.5546 4.5038l-3.25.31336v-6.4564c0-4.5628-.4042-6.6115-1.3781-6.9852-2.42-.931-3.62 1.557-3.62 7.514 0 5.7778-.0115 5.8-3 5.8h-3v-7.0769zm25.03-.173c.0329-7.5055.86079-9.5672 4.6525-11.587 3.362-1.7906 5.8782-1.4024 9.239 1.4256 2.926 2.4621 3.0767 2.952 3.0767 10v7.411h-3-3v-6.4167c0-4.2341-.42517-6.565-1.25-6.8527-2.9053-1.0134-3.75.53543-3.75 6.8763v6.393h-3-3l.0318-7.25zm26.891 4.3269c-2.11-2.117-2.92-3.888-2.92-6.423 0-4.1167 3.7207-9.1158 7.4886-10.061 3.0584-.76760 8.9971 1.5783 10.338 4.0837.83256 1.5557.22201 2.3518-3.8905 5.0731-4.7027 3.1119-4.9158 3.1572-5.93 1.2622-.84747-1.5835-.65869-2.2113.97098-3.229 2.5968-1.6217 2.6033-2.7468.012-2.0692-1.106.28923-2.2813 1.6029-2.6117 2.9194-1.1903 4.7424 4.0481 7.2293 7.2791 3.4558 1.3398-1.5648 2.064-1.7171 3.9902-.83948 2.7921 1.2722 2.8357 1.6009.58109 4.3842-4.2393 5.2335-10.888 5.8608-15.305 1.444zm27.379 1.726c-2.8518-1.3779-5.6465-7.2964-4.8826-10.34.32685-1.3023 1.6683-3.6164 2.981-5.1425 3.1956-3.7151 9.2994-3.8897 13.043-.37315 3.4553 3.2461 3.3697 5.6744-.19363 5.4927-1.5125-.07714-3.5375-.48077-4.5-.89697-4.0216-1.739-6.6004 2.6767-3.2076 5.4924 1.1683.96957 1.8232.99927 2.7.12244.64-.638 2.64-1.159 4.46-1.159 4.1189 0 4.3672 2.1064.65398 5.5477-2.8343 2.6267-7.189 3.1213-11.051 1.2552zm23.56-.713c-2.19-1.773-2.36-2.614-2.36-11.75v-9.8404l3.25-.31336c2.9029-.27989 3.25-.03961 3.25 2.25 0 1.897.52 2.564 2 2.564 1.5556 0 2 .66667 2 3s-.44444 3-2 3c-1.619 0-2 .66667-2 3.5s.38095 3.5 2 3.5c1.5556 0 2 .66667 2 3 0 2.6411-.34564 3-2.8892 3-1.5891 0-3.9516-.85933-5.25-1.9096zm-202.79-28.725c-1.14-1.449-2.07-3.494-2.07-4.545 0-2.737 4.46-6.82 7.45-6.82 2.53 0 6.55 3.074 6.55 5 0 .66038 36.033 1 106.1 1h106.1l2.8-3c4.9741-5.3248 12-2.7808 12 4.345 0 6.473-7.8325 9.226-11.821 4.155l-1.9665-2.5h-106.06-106.06l-2.5 2.5c-3.3859 3.3859-7.7933 3.3294-10.518-.13486zm43.71-22.115c-.27097-10.263-.38504-10.764-2.517-11.067-1.6824-.23908-2.1836-.91738-2.0319-2.75.20-2.352.47-2.433 7.99-2.433 7.63 0 7.78.048 7.78 2.5 0 1.8333-.53333 2.5-2 2.5-1.8788 0-2 .66667-2 11v11h-3.4662-3.4662l-.28383-10.75zm12.788 9.1786c-1.8017-1.8017-2.1606-10.749-.59618-14.863.77496-2.0383 1.6478-2.562 4.25-2.5498 5.4897.02567 6.1081.98584 6.1081 9.4847 0 5.5337-.39536 7.9262-1.4167 8.5727-2.2354 1.4149-6.625 1.0761-8.3452-.64409zm5.43-7.37c0-3.2675-.45-6.2191-1-6.559-.62784-.38803-1 1.8229-1 5.941 0 3.706.43 6.559 1 6.559.55445 0 1-2.647 1-5.941zm10 1.441c0-6-.3-7.5-1.5-7.5-.83333 0-1.5-.88889-1.5-2 0-1.7576.66667-2 5.5-2 4.2723 0 5.5.34183 5.5 1.5314 0 .84226-.675 1.7904-1.5 2.107-1.1462.43982-1.5 2.3195-1.5 7.9686 0 7.219-.06 7.393-2.5 7.393s-2.5-.167-2.5-7.5zm8.0751 6.25c.0413-.6875.60525-4.85 1.2532-9.25l1.1781-8 3.5662-.29960 3.5662-.29960 1.1872 7.7996c.65297 4.2898 1.1842 8.5871 1.1806 9.5496-.008 2.178-3.8263 2.3835-4.645.25-.32-.825-.99-1.5-1.48-1.5s-.89.675-.89 1.5c0 .93333-.94444 1.5-2.5 1.5-1.375 0-2.4662-.5625-2.4249-1.25zm6.92-8.25c0-1.375-.17254-2.5-.38342-2.5-.21089 0-.59848 1.125-.86133 2.5s-.0903 2.5.38342 2.5c.47 0 .86-1.125.86-2.5zm7 0c0-9.4667.009-9.5 2.5-9.5 2.4444 0 2.5.16667 2.5 7.5 0 6 .3 7.5 1.5 7.5.83333 0 1.5.88889 1.5 2 0 1.6667-.66667 2-4 2h-4v-9.5zm28.5 8.3051c-3.21-1.818-3.47-2.792-3.48-12.9-.02-10.77 1.08-12.905 6.65-12.905 3.8 0 6.33 2.728 6.33 6.829 0 4.3816-3.4805 4.5187-4.35.17126-.63995-3.1998-3.0367-4.0405-4.043-1.4182-1.1844 3.0864-.65364 15.135.7168 16.272 1.75 1.447 3.68-.422 3.68-3.554 0-1.6333.57971-2.3 2-2.3 1.5929 0 1.9969.66156 1.9847 3.25-.018 3.81-.70046 5.0378-3.669 6.6003-2.6648 1.4027-3.2707 1.3979-5.8157-.04524zm13.155-.63380c-2.27-2.497-2.43-17.171-.20-17.171 1.1251 0 1.5246 1.7508 1.75 7.6697.19143 5.0273.72272 7.8122 1.5421 8.0833.93102.30805 1.25-1.6492 1.25-7.6697 0-6.518.29-8.083 1.5-8.083 1.2152 0 1.5 1.6072 1.5 8.4648 0 7.3455-.25578 8.6017-1.9343 9.5-2.6774 1.4329-3.5058 1.3114-5.4108-.79356zm11.09.749c-2.08-1.212-2.35-4.92-.36-4.92.76616 0 1.663.70352 1.9929 1.5634.32996.85986 1.0531 1.2833 1.607.94098 1.91-1.178 1-3.456-1.99-5.004-2.41-1.245-3-2.199-3-4.826 0-3.775 1.51-5.674 4.5-5.674 2.5757 0 4.5 1.796 4.5 4.2 0 2.1798-1.8369 2.3886-2.6384.3-.83-2.176-3.36-1.841-3.36.445 0 1.1377 1.1418 2.49 2.75 3.257 3.4576 1.649 4.456 7.4426 1.6376 9.5035-2.1024 1.5373-3.2883 1.5824-5.6376.21404zm20.25-.920c-1.5209-1.5209-2-3.3333-2-7.5657 0-7.014 1.24-9.434 4.84-9.434 4.2 0 5.16 1.696 5.16 9.143 0 5.8347-.29946 6.953-2.2225 8.3-2.86 2.004-3.37 1.965-5.78-.443zm4.5-7.5c0-3.7778-.44048-5.9802-1.25-6.25-.91667-.30556-1.25 1.3611-1.25 6.25s.33333 6.5556 1.25 6.25c.80952-.26984 1.25-2.4722 1.25-6.25zm-13.5 1c0-4.3333-.42222-7.5-1-7.5-.55 0-1-.675-1-1.5 0-1.0833 1.1111-1.5 4-1.5s4 .41667 4 1.5c0 .825-.675 1.5-1.5 1.5-1.2 0-1.5 1.5-1.5 7.5s-.3 7.5-1.5 7.5-1.5-1.5-1.5-7.5zm18-1.5c0-8.1248.18184-9 1.87-9 1.385 0 2.2014 1.2321 3.1474 4.75 1.8443 6.8582 2.4869 6.9847 3.9748.78249 1.02-4.224 1.76-5.532 3.17-5.532 1.65 0 1.84.927 1.84 9 0 7.3333-.27778 9-1.5 9-1.0047 0-1.5337-1.0732-1.6021-3.25l-.10209-3.25-1.0426 3.25c-.65 1.994-1.71 3.25-2.76 3.25-1.0495 0-2.1136-1.2562-2.7532-3.25l-1.0426-3.25-.10209 3.25c-.08 2.177-.61 3.25-1.61 3.25-1.22 0-1.5-1.667-1.5-9zm15 0v-9h4.5c3.3333 0 4.5.38889 4.5 1.5 0 .97436-.97619 1.5-2.7857 1.5-2.119 0-2.7857.47863-2.7857 2s.66667 2 2.7857 2c1.8095 0 2.7857.52564 2.7857 1.5 0 .93333-.94444 1.5-2.5 1.5-2 0-2.5.5-2.5 2.5s.5 2.5 2.5 2.5c1.5556 0 2.5.56667 2.5 1.5 0 1.1111-1.1667 1.5-4.5 1.5h-4.5v-9zm11 0v-9h3.3776c1.8576 0 3.8405.5625 4.4062 1.25.56578.6875 1.04 4.7375 1.0539 9 .0198 6.0691-.28524 7.75-1.4062 7.75-.92 0-1.43-1.064-1.43-3 0-2-.5-3-1.5-3s-1.5 1-1.5 3-.5 3-1.5 3c-1.2222 0-1.5-1.6667-1.5-9zm5.5-3c0-1.2833-.5625-2.5208-1.25-2.75-.82456-.27485-1.25.66111-1.25 2.75s.42544 3.0249 1.25 2.75c.6875-.22917 1.25-1.4667 1.25-2.75z"/>
  <path id="path3364" fill="#f18c61" d="m26 50.5v-30.5h-10-10l-.0004-4.25-.0003-4.25 24.751.246c21.811.21703 24.733.43305 24.6 1.8187-.10302 1.0775.36911 1.3698 1.5.92871 10.445-4.0743 19.763-4.0616 28.9.03935l5.25 2.356 5.669-2.595c15.141-6.9306 35.001-.525 43.311 13.969 3.94 6.88 3.86 7.737-.79 7.737-3.3764 0-4.3504-.62680-8.5716-5.5162-6.5778-7.619-11.291-9.9346-20.119-9.8851-3.85.0216-8.2969.58218-9.882 1.2457-2.6281 1.1002-2.7485 1.3584-1.3665 2.931 2.2828 2.5978 5.7493 9.8904 5.039 10.601-.34.342-2.31.623-4.375.623-3.2184 0-4.0634-.50417-5.9437-3.5466-1.2055-1.9506-2.6958-3.3786-3.3117-3.1733-.61588.20530-2.2537 2.5794-3.6397 5.2759-3.7245 7.2464-3.5596 16.998.40941 24.201 2.7357 4.9652 2.9974 5.1664 4.7082 3.6181.99631-.90165 2.0783-2.48 2.4044-3.5075.473-1.491 1.587-1.868 5.528-1.868 2.71 0 4.93.364 4.93.809 0 .44486-1.5301 3.3498-3.4002 6.4554l-3.4002 5.6466 3.275 1.0808c11.18 3.688 26.22-1.688 31.09-11.11 1.31-2.523 2.05-2.881 5.97-2.881 5.3558 0 5.5646.89685 1.6423 7.0542-3.6771 5.7723-10.24 11.624-16.046 14.308-6.8594 3.1706-21.72 3.0461-28.372-.23757l-4.754-2.344-4.75 2.344c-3.964 1.957-6.322 2.348-14.25 2.36-8.319.014-10.185-.320-15.007-2.689-7.093-3.483-13.291-9.665-16.748-16.706-2.41-4.907-2.744-6.748-2.74-15.089.0042-8.3742.32355-10.105 2.6946-14.607 1.4794-2.8091 3.8797-6.5216 5.3341-8.25l2.644-3.143h-6.589-6.589v30.5 30.5h-4.5-4.5v-30.5zm54.742 20.44 3.0402-1.0598-3.3773-5.6085c-3.9669-6.5877-4.9301-10.431-4.8341-19.29.07179-6.6284 3.4028-16.085 7.1081-20.179 1.4677-1.6218 1.3715-1.8412-1.2967-2.9582-4.929-2.064-16.291-1.601-20.882.850-5.1938 2.7729-10.997 8.8325-12.951 13.523-3.5195 8.4483-1.1093 21.35 5.2601 28.159 6.0836 6.5028 19.24 9.5942 27.933 6.5637zm75.758 8.218c-3.9147-2.3934-5.3771-4.243-6.5281-8.2563-1.3752-4.7949.3962-10.14 4.5768-13.811 2.95-2.588 4.35-3.091 8.6-3.091 4.5889 0 5.468.38519 9.0466 3.9638 2.1801 2.1801 3.6756 4.4301 3.3233 5-1.078 1.7442-5.4416 1.1559-8.5674-1.1552-2.3954-1.771-3.4849-2.0083-5.6786-1.2368-6.1678 2.1691-6.8079 10.448-1.0222 13.221 2.9191 1.3991 6.4104.33099 8.0606-2.466.49191-.83375 2.177-1.2892 4.2525-1.1495 2.9566.19912 3.3508.51777 2.8169 2.277-2.1958 7.2355-12.204 10.788-18.884 6.7038zm31.388.34204c-8.1726-4.4417-4.7494-17.532 4.6544-17.799 2.9846-.0846 4.2686.52250 6.5827 3.1124 3.9706 4.4439 3.9003 9.0067-.20207 13.109-3.3956 3.3956-6.7953 3.8815-11.035 1.5773zm6.91-5.7c2.6444-2.6444.19702-7.5036-3.1352-6.2249-2.1739.83421-3.0913 4.2061-1.625 5.9729 1.4655 1.7658 3.1569 1.8553 4.7602.25201zm14.36-.29121c.45162-8.9433 2.3543-11.636 8.3415-11.806 2.9349-.08319 4.2729.49578 6.1268 2.6511 2.01 2.335 2.37 3.833 2.37 9.768v7.0107l-2.75-.31642c-2.64-.30377-2.7376-.51638-2.4386-5.3164.35137-5.6412-1.4725-9.2278-4.1668-8.1939-1.29.497-1.64 2.024-1.64 7.163v6.531h-3.1093-3.1093l.37829-7.4912zm24.84.613c0-5.8542.37578-7.4475 2.2781-9.6591 3.2919-3.8271 9.1077-3.8784 12.35-.10913 2.01 2.335 2.37 3.833 2.37 9.768v7.0107l-2.75-.31642c-2.62-.302-2.77-.611-3.25-6.816-.4359-5.6667-.75641-6.5-2.5-6.5s-2.0641.83333-2.5 6.5c-.47727 6.2045-.62501 6.5144-3.25 6.8164l-2.75.31642v-7.0107zm28.888 5.3782c-8.4-4.563-4.65-17.5 5.07-17.5 3.37 0 8.04 3.077 8.04 5.3 0 .36925-1.7968 1.8605-3.993 3.3138-3.4089 2.2559-4.2289 2.4467-5.6055 1.3042-1.4531-1.2059-1.3302-1.5642 1.243-3.6233 2.5532-2.0431 2.6384-2.2856.80551-2.29-2.6326-.0064-4.45 1.8294-4.45 4.495 0 4.3103 4.7101 5.9773 8.134 2.8787 2-1.808 4.87-1.219 4.87 1.002 0 2.2545-5.8621 6.6246-8.8267 6.5802-1.4703-.02202-3.8486-.67884-5.2852-1.4596zm24.035-1.4234c-5.0844-5.0844-3.7422-13.001 2.6574-15.675 2.9638-1.2383 3.8752-1.2383 6.839 0 2.9304 1.2244 5.5805 4.0891 5.5805 6.0323 0 .97311-5.0349.61743-7.1297-.50365-2.54-1.362-4.87.369-4.87 3.624 0 2.6213 3.5295 4.3154 5.3007 2.5443 1.62-1.622 6.7-1.386 6.7.312 0 .77611-1.3845 2.5761-3.0767 4-4.1674 3.5067-8.2737 3.3923-12-.33418zm26.58 1.728c-3.21-1.82-3.47-2.79-3.48-13.055-.02-9.737-.02-9.75 2.48-9.75 2 0 2.5.5 2.5 2.5s.5 2.5 2.5 2.5c3.437 0 3.6637 4.6956.25 5.1804-1.8439.26188-2.25.95127-2.25 3.8196s.4061 3.5577 2.25 3.8196c1.7488.24836 2.25.97236 2.25 3.25 0 2.3813-.42162 2.9248-2.25 2.9-1.2375-.01672-3.15-.54077-4.25-1.1645zm-204.43-29.44c-1.14-1.449-2.07-3.494-2.07-4.545 0-2.737 4.46-6.82 7.45-6.82 2.53 0 6.55 3.074 6.55 5 0 .66038 36.033 1 106.1 1h106.1l2.8-3c4.9741-5.3248 12-2.7808 12 4.345 0 6.473-7.8325 9.226-11.821 4.155l-1.9665-2.5h-106.06-106.06l-2.5 2.5c-3.3859 3.3859-7.7933 3.3294-10.518-.13486zm43.71-22.115c-.27097-10.263-.38504-10.764-2.517-11.067-1.6824-.23908-2.1836-.91738-2.0319-2.75.20-2.352.47-2.433 7.99-2.433 7.63 0 7.78.048 7.78 2.5 0 1.8333-.53333 2.5-2 2.5-1.8788 0-2 .66667-2 11v11h-3.4662-3.4662l-.28383-10.75zm12.788 9.1786c-1.8017-1.8017-2.1606-10.749-.59618-14.863.77496-2.0383 1.6478-2.562 4.25-2.5498 5.4897.02567 6.1081.98584 6.1081 9.4847 0 5.5337-.39536 7.9262-1.4167 8.5727-2.2354 1.4149-6.625 1.0761-8.3452-.64409zm5.43-7.37c0-3.2675-.45-6.2191-1-6.559-.62784-.38803-1 1.8229-1 5.941 0 3.706.43 6.559 1 6.559.55445 0 1-2.647 1-5.941zm10 1.441c0-6-.3-7.5-1.5-7.5-.83333 0-1.5-.88889-1.5-2 0-1.7576.66667-2 5.5-2 4.2723 0 5.5.34183 5.5 1.5314 0 .84226-.675 1.7904-1.5 2.107-1.1462.43982-1.5 2.3195-1.5 7.9686 0 7.219-.06 7.393-2.5 7.393s-2.5-.167-2.5-7.5zm8.0751 6.25c.0413-.6875.60525-4.85 1.2532-9.25l1.1781-8 3.5662-.29960 3.5662-.29960 1.1872 7.7996c.65297 4.2898 1.1842 8.5871 1.1806 9.5496-.008 2.178-3.8263 2.3835-4.645.25-.32-.825-.99-1.5-1.48-1.5s-.89.675-.89 1.5c0 .93333-.94444 1.5-2.5 1.5-1.375 0-2.4662-.5625-2.4249-1.25zm6.92-8.25c0-1.375-.17254-2.5-.38342-2.5-.21089 0-.59848 1.125-.86133 2.5s-.0903 2.5.38342 2.5c.47 0 .86-1.125.86-2.5zm7 0c0-9.4667.009-9.5 2.5-9.5 2.4444 0 2.5.16667 2.5 7.5 0 6 .3 7.5 1.5 7.5.83333 0 1.5.88889 1.5 2 0 1.6667-.66667 2-4 2h-4v-9.5zm26.655 6.6713c-1.29-1.422-1.66-3.869-1.66-11 0-7.838.29-9.462 2-11.171 4.1482-4.1482 11-1.0338 11 5 0 2.299-.45182 3-1.9336 3-1.366 0-2.0265-.80725-2.25-2.75-.22758-1.9779-.87798-2.75-2.3164-2.75-1.8518 0-2 .66667-2 9s.14815 9 2 9c1.5255 0 2.0744-.77112 2.3134-3.25.23526-2.44.79601-3.25 2.25-3.25 2.4412 0 2.662 4.5194.37994 7.7775-1.9625 2.8019-7.4107 3.021-9.7883.39376zm14.59.67382c-.79-.781-1.25-4.155-1.25-9.045 0-6.2667.29487-7.8 1.5-7.8 1.1989 0 1.5 1.4934 1.5 7.441 0 7.2958 1.2636 10.331 3.0965 7.4371.48009-.75796.87978-4.4156.8882-8.1281.009-3.9921.43979-6.75 1.0542-6.75.66144 0 .93395 3.1793.75 8.75l-.29 8.75-3.0049.29508c-1.6527.16229-3.5652-.26521-4.25-.95zm10.362-.42687c-.96-2.502-.72-3.418.89-3.418.825 0 1.5.675 1.5 1.5s.675 1.5 1.5 1.5c.93333 0 1.5-.94444 1.5-2.5 0-1.5-.57143-2.5-1.4286-2.5-3.7556 0-6.1658-7.0057-3.3714-9.8 2.4762-2.4762 7.8-.76989 7.8 2.5 0 1.8303-2.662 1.6232-3.386-.26338-.82-2.136-2.61-.830-2.61 1.903 0 1.5503.90664 2.564 3 3.3541 2.2336.84309 3 1.7723 3 3.6374 0 4.394-1.01 5.668-4.5 5.668-2.0739 0-3.5099-.58346-3.893-1.5818zm12.39-5.918c0-4.3333-.42222-7.5-1-7.5-.55 0-1-.675-1-1.5 0-1.0833 1.1111-1.5 4-1.5 3.9562 0 5.4013 1.5251 2.5 2.6384-1.1462.43982-1.5 2.3195-1.5 7.9686 0 5.905-.30 7.393-1.5 7.393s-1.5-1.5-1.5-7.5zm8.6667 6.8333c-1.19-1.184-.74-14.867.53-16.133 1.6609-1.6609 4.357-1.5001 6.2286.37143 1.8245 1.8245 2.1796 11.424.53625 14.494-1.0109 1.8889-5.8384 2.7274-7.2982 1.2676zm5.1401-7.2927c.39034-6.746-.2655-8.7347-2.3186-7.0308-1.5316 1.2711-2.1616 10.983-.80067 12.344 1.6422 1.6423 2.8343-.38837 3.1193-5.3136zm4.19-1.113c0-7.9321.20969-9.0327 1.6671-8.75.97623.18933 2.2524 2.1882 3.0792 4.8233.77665 2.475 1.6548 5.175 1.9513 6 .30078.83669 1.2964-1.1533 2.2514-4.5 1.1122-3.8977 2.2971-6.1133 3.3816-6.3233 1.46-.283 1.67.813 1.67 8.75 0 7.398-.28 9.073-1.5 9.073-1.0442 0-1.5384-1.1395-1.6264-3.75l-.12637-3.75-1.05 3.75c-.66 2.391-1.64 3.75-2.69 3.75-1.0502 0-2.0279-1.3593-2.6973-3.75l-1.05-3.75-.12637 3.75c-.08 2.611-.58 3.75-1.62 3.75-1.22 0-1.5-1.675-1.5-9.073zm16 .073v-9h4c2.8889 0 4 .41667 4 1.5 0 1.0076-1.0077 1.5-3.0696 1.5-2.6112 0-3.0218.33594-2.75 2.25.2288 1.611 1.1005 2.3399 3.0696 2.5664 3.75.432 3.49 2.184-.32 2.184-2.7552 0-3.0343.27908-2.75 2.75.24853 2.16.90645 2.8179 3.0664 3.0664 4.23.487 3.26 2.184-1.25 2.184h-4v-9zm10 0v-9h2.9286c5.0687 0 7.5391 4.389 5.0687 9.0051-.67028 1.2524-.67028 2.079 0 2.4933 1.64 1.015 1.22 6.502-.50 6.502-.99 0-1.5-.988-1.5-2.893 0-1.591-.63-3.135-1.4-3.431-1.93-.739-2.6.163-2.6 3.491 0 1.558-.45 2.833-1 2.833-.59259 0-1-3.6667-1-9zm5.8164-3.2586c.25-2.206-.09-2.741-1.75-2.741-1.64 0-2.07.634-2.07 3.073 0 2.3867.39095 2.9992 1.75 2.7414 1.0555-.20016 1.8756-1.4199 2.0664-3.0733z"/>
  <path id="path3362" fill="#ed6327" d="m27 50.5v-30.5h-10.5-10.5v-4-4h24.5c21.836 0 24.5.17473 24.5 1.607 0 1.1236.52640 1.4018 1.75.92498 10.558-4.1147 19.83-4.1143 29 .0011l5.25 2.3563 5.6692-2.5955c15.141-6.9306 35.001-.525 43.311 13.969 3.94 6.88 3.86 7.737-.79 7.737-3.3764 0-4.3504-.62680-8.5716-5.5162-6.5778-7.619-11.291-9.9346-20.119-9.8851-3.85.0216-8.2969.58218-9.882 1.2457-2.6281 1.1002-2.7485 1.3584-1.3665 2.931 2.2828 2.5978 5.7493 9.8904 5.039 10.601-.34.342-2.31.623-4.375.623-3.2184 0-4.0634-.50417-5.9437-3.5466-1.2055-1.9506-2.6958-3.3786-3.3117-3.1733-.61588.20530-2.2537 2.5794-3.6397 5.2759-3.7245 7.2464-3.5596 16.998.40941 24.201 2.7357 4.9652 2.9974 5.1664 4.7082 3.6181.99631-.90165 2.0783-2.48 2.4044-3.5075.473-1.491 1.587-1.868 5.528-1.868 2.71 0 4.93.364 4.93.809 0 .44486-1.5301 3.3498-3.4002 6.4554l-3.4002 5.6466 3.275 1.0808c11.18 3.688 26.22-1.688 31.09-11.11 1.31-2.523 2.05-2.881 5.97-2.881 5.3558 0 5.5646.89685 1.6423 7.0542-3.6771 5.7723-10.24 11.624-16.046 14.308-6.8594 3.1706-21.72 3.0461-28.372-.23757l-4.754-2.344-4.75 2.344c-3.964 1.957-6.322 2.348-14.25 2.36-8.319.014-10.185-.320-15.007-2.689-7.093-3.483-13.291-9.665-16.748-16.706-2.41-4.907-2.744-6.748-2.74-15.089.0042-8.3742.32355-10.105 2.6946-14.607 1.4794-2.8091 3.8797-6.5216 5.3341-8.25l2.644-3.143h-6.589-6.589v30.5 30.5h-4-4v-30.5zm53.742 20.44 3.0402-1.0598-3.3773-5.6085c-3.9669-6.5877-4.9301-10.431-4.8341-19.29.07179-6.6284 3.4028-16.085 7.1081-20.179 1.4677-1.6218 1.3715-1.8412-1.2967-2.9582-4.929-2.064-16.291-1.601-20.882.850-5.1938 2.7729-10.997 8.8325-12.951 13.523-3.5195 8.4483-1.1093 21.35 5.2601 28.159 6.0836 6.5028 19.24 9.5942 27.933 6.5637zm75.758 8.218c-3.9147-2.3934-5.3771-4.243-6.5281-8.2563-1.3752-4.7949.3962-10.14 4.5768-13.811 2.95-2.588 4.35-3.091 8.6-3.091 4.5889 0 5.468.38519 9.0466 3.9638 2.1801 2.1801 3.6756 4.4301 3.3233 5-1.078 1.7442-5.4416 1.1559-8.5674-1.1552-2.3954-1.771-3.4849-2.0083-5.6786-1.2368-6.1678 2.1691-6.8079 10.448-1.0222 13.221 2.9191 1.3991 6.4104.33099 8.0606-2.466.49191-.83375 2.177-1.2892 4.2525-1.1495 2.9566.19912 3.3508.51777 2.8169 2.277-2.1958 7.2355-12.204 10.788-18.884 6.7038zm31.388.34204c-8.1726-4.4417-4.7494-17.532 4.6544-17.799 2.9846-.0846 4.2686.52250 6.5827 3.1124 3.9706 4.4439 3.9003 9.0067-.20207 13.109-3.3956 3.3956-6.7953 3.8815-11.035 1.5773zm6.91-5.7c2.6444-2.6444.19702-7.5036-3.1352-6.2249-2.1739.83421-3.0913 4.2061-1.625 5.9729 1.4655 1.7658 3.1569 1.8553 4.7602.25201zm14.36-.29121c.45162-8.9433 2.3543-11.636 8.3415-11.806 2.9349-.08319 4.2729.49578 6.1268 2.6511 2.01 2.335 2.37 3.833 2.37 9.768v7.0107l-2.75-.31642c-2.64-.30377-2.7376-.51638-2.4386-5.3164.35137-5.6412-1.4725-9.2278-4.1668-8.1939-1.29.497-1.64 2.024-1.64 7.163v6.531h-3.1093-3.1093l.37829-7.4912zm24.84.613c0-5.8542.37578-7.4475 2.2781-9.6591 3.2919-3.8271 9.1077-3.8784 12.35-.10913 2.01 2.335 2.37 3.833 2.37 9.768v7.0107l-2.75-.31642c-2.62-.302-2.77-.611-3.25-6.816-.4359-5.6667-.75641-6.5-2.5-6.5s-2.0641.83333-2.5 6.5c-.47727 6.2045-.62501 6.5144-3.25 6.8164l-2.75.31642v-7.0107zm28.888 5.3782c-8.4-4.563-4.65-17.5 5.07-17.5 3.37 0 8.04 3.077 8.04 5.3 0 .36925-1.7968 1.8605-3.993 3.3138-3.4089 2.2559-4.2289 2.4467-5.6055 1.3042-1.4531-1.2059-1.3302-1.5642 1.243-3.6233 2.5532-2.0431 2.6384-2.2856.80551-2.29-2.6326-.0064-4.45 1.8294-4.45 4.495 0 4.3103 4.7101 5.9773 8.134 2.8787 2-1.808 4.87-1.219 4.87 1.002 0 2.2545-5.8621 6.6246-8.8267 6.5802-1.4703-.02202-3.8486-.67884-5.2852-1.4596zm24.035-1.4234c-5.0844-5.0844-3.7422-13.001 2.6574-15.675 2.9638-1.2383 3.8752-1.2383 6.839 0 2.9304 1.2244 5.5805 4.0891 5.5805 6.0323 0 .97311-5.0349.61743-7.1297-.50365-2.54-1.362-4.87.369-4.87 3.624 0 2.6213 3.5295 4.3154 5.3007 2.5443 1.62-1.622 6.7-1.386 6.7.312 0 .77611-1.3845 2.5761-3.0767 4-4.1674 3.5067-8.2737 3.3923-12-.33418zm26.58 1.728c-3.21-1.82-3.47-2.79-3.48-13.055-.02-9.737-.02-9.75 2.48-9.75 2 0 2.5.5 2.5 2.5s.5 2.5 2.5 2.5c3.437 0 3.6637 4.6956.25 5.1804-1.8439.26188-2.25.95127-2.25 3.8196s.4061 3.5577 2.25 3.8196c1.7488.24836 2.25.97236 2.25 3.25 0 2.3813-.42162 2.9248-2.25 2.9-1.2375-.01672-3.15-.54077-4.25-1.1645zm-203.56-28.649c-1.5122-1.2245-2.2774-2.9206-2.2774-5.0476 0-3.6857 1.6798-5.6939 5.5582-6.6445 2.2072-.54102 3.3141-.07863 5.8269 2.4342l3.1 3.102h106.43c89.72 0 106.42-.216 106.42-1.378 0-1.8099 1.8779-3.3027 5.2053-4.1378 2.1046-.52823 3.2521-.11816 5.2444 1.8742 3.0609 3.0609 3.2807 6.9109.55032 9.6412-2.9074 2.9074-6.7047 2.5276-10-1l-2.8024-3h-106.1c-70.07 0-106.1.340-106.1 1 0 1.8747-3.9936 5-6.3892 5-1.3141 0-3.4141-.82988-4.6667-1.8442zm43.06-23.156c0-10.333-.12121-11-2-11-1.4667 0-2-.66667-2-2.5 0-2.4444.16667-2.5 7.5-2.5s7.5.05556 7.5 2.5c0 2-.5 2.5-2.5 2.5h-2.5v11 11h-3-3v-11zm13.2 9.8c-.70798-.70798-1.2-4.1111-1.2-8.3 0-7.7505.92077-9.5 5-9.5s5 1.7495 5 9.5-.92077 9.5-5 9.5c-1.43 0-3.14-.54-3.8-1.2zm4.8-8.3c0-3.6667-.4359-6.5-1-6.5s-1 2.8333-1 6.5.4359 6.5 1 6.5 1-2.8333 1-6.5zm10 2c0-6-.3-7.5-1.5-7.5-.83333 0-1.5-.88889-1.5-2 0-1.7333.66667-2 5-2s5 .26667 5 2c0 1.1111-.66667 2-1.5 2-1.2 0-1.5 1.5-1.5 7.5 0 6.8333-.17778 7.5-2 7.5s-2-.66667-2-7.5zm9.6497-1.75c.66952-5.0875 1.2472-9.3625 1.2838-9.5s1.5795-.25 3.4288-.25c3.3488 0 3.365.0231 4.0332 5.75.36896 3.1625.93843 7.4375 1.2655 9.5.52128 3.2874.34653 3.75-1.4165 3.75-1.1702 0-2.2299-.83633-2.5342-2-.28766-1.1-1.0151-2-1.6166-2-.60 0-1.09.90-1.09 2 0 1.4162-.66667 2-2.2838 2h-2.2838l1.2173-9.25zm5.28-1c-.0589-2.7235-.2095-2.926-.92971-1.25-1.1872 2.7627-1.1872 4.5 0 4.5.55 0 .96837-1.4625.92971-3.25zm8.07.75c0-8.8333.14035-9.5 2-9.5 1.8222 0 2 .66667 2 7.5 0 6 .3 7.5 1.5 7.5.83333 0 1.5.88889 1.5 2 0 1.619-.66667 2-3.5 2h-3.5v-9.5zm25.655 6.6713c-1.29-1.422-1.66-3.869-1.66-11 0-7.838.29-9.462 2-11.171 4.1482-4.1482 11-1.0338 11 5 0 2.299-.45182 3-1.9336 3-1.366 0-2.0265-.80725-2.25-2.75-.22758-1.9779-.87798-2.75-2.3164-2.75-1.8518 0-2 .66667-2 9s.14815 9 2 9c1.5255 0 2.0744-.77112 2.3134-3.25.23526-2.44.79601-3.25 2.25-3.25 2.4412 0 2.662 4.5194.37994 7.7775-1.9625 2.8019-7.4107 3.021-9.7883.39376zm14.59.67382c-.79-.781-1.25-4.155-1.25-9.045 0-6.2667.29487-7.8 1.5-7.8 1.1989 0 1.5 1.4934 1.5 7.441 0 7.2958 1.2636 10.331 3.0965 7.4371.48009-.75796.87978-4.4156.8882-8.1281.009-3.9921.43979-6.75 1.0542-6.75.66144 0 .93395 3.1793.75 8.75l-.29 8.75-3.0049.29508c-1.6527.16229-3.5652-.26521-4.25-.95zm10.362-.42687c-.96-2.502-.72-3.418.89-3.418.825 0 1.5.675 1.5 1.5s.675 1.5 1.5 1.5c.93333 0 1.5-.94444 1.5-2.5 0-1.5-.57143-2.5-1.4286-2.5-3.7556 0-6.1658-7.0057-3.3714-9.8 2.4762-2.4762 7.8-.76989 7.8 2.5 0 1.8303-2.662 1.6232-3.386-.26338-.82-2.136-2.61-.830-2.61 1.903 0 1.5503.90664 2.564 3 3.3541 2.2336.84309 3 1.7723 3 3.6374 0 4.394-1.01 5.668-4.5 5.668-2.0739 0-3.5099-.58346-3.893-1.5818zm12.39-5.918c0-4.3333-.42222-7.5-1-7.5-.55 0-1-.675-1-1.5 0-1.0833 1.1111-1.5 4-1.5 3.9562 0 5.4013 1.5251 2.5 2.6384-1.1462.43982-1.5 2.3195-1.5 7.9686 0 5.905-.30 7.393-1.5 7.393s-1.5-1.5-1.5-7.5zm8.6667 6.8333c-1.19-1.184-.74-14.867.53-16.133 1.6609-1.6609 4.357-1.5001 6.2286.37143 1.8245 1.8245 2.1796 11.424.53625 14.494-1.0109 1.8889-5.8384 2.7274-7.2982 1.2676zm5.1401-7.2927c.39034-6.746-.2655-8.7347-2.3186-7.0308-1.5316 1.2711-2.1616 10.983-.80067 12.344 1.6422 1.6423 2.8343-.38837 3.1193-5.3136zm4.19-1.113c0-7.9321.20969-9.0327 1.6671-8.75.97623.18933 2.2524 2.1882 3.0792 4.8233.77665 2.475 1.6548 5.175 1.9513 6 .30078.83669 1.2964-1.1533 2.2514-4.5 1.1122-3.8977 2.2971-6.1133 3.3816-6.3233 1.46-.283 1.67.813 1.67 8.75 0 7.398-.28 9.073-1.5 9.073-1.0442 0-1.5384-1.1395-1.6264-3.75l-.12637-3.75-1.05 3.75c-.66 2.391-1.64 3.75-2.69 3.75-1.0502 0-2.0279-1.3593-2.6973-3.75l-1.05-3.75-.12637 3.75c-.08 2.611-.58 3.75-1.62 3.75-1.22 0-1.5-1.675-1.5-9.073zm16 .073v-9h4c2.8889 0 4 .41667 4 1.5 0 1.0076-1.0077 1.5-3.0696 1.5-2.6112 0-3.0218.33594-2.75 2.25.2288 1.611 1.1005 2.3399 3.0696 2.5664 3.75.432 3.49 2.184-.32 2.184-2.7552 0-3.0343.27908-2.75 2.75.24853 2.16.90645 2.8179 3.0664 3.0664 4.23.487 3.26 2.184-1.25 2.184h-4v-9zm10 0v-9h2.9286c5.0687 0 7.5391 4.389 5.0687 9.0051-.67028 1.2524-.67028 2.079 0 2.4933 1.64 1.015 1.22 6.502-.50 6.502-.99 0-1.5-.988-1.5-2.893 0-1.591-.63-3.135-1.4-3.431-1.93-.739-2.6.163-2.6 3.491 0 1.558-.45 2.833-1 2.833-.59259 0-1-3.6667-1-9zm5.8164-3.2586c.25-2.206-.09-2.741-1.75-2.741-1.64 0-2.07.634-2.07 3.073 0 2.3867.39095 2.9992 1.75 2.7414 1.0555-.20016 1.8756-1.4199 2.0664-3.0733z"/>
  <path id="path3360" fill="#ec5a18" d="m28.762 80.293c1.2439-.23919 3.0439-.23011 4 .02018.956.250-.062.446-2.262.435s-2.982-.216-1.738-.455zm31.574-1.084c-20.025-7.149-29.215-30.522-19.308-49.109 1.824-3.424 5.49-8.178 8.145-10.565s4.827-4.826 4.827-5.419c0-.733-7.462-1.172-23.25-1.367l-23.25-.288 23.75-.230c21.243-.207 23.75-.061 23.75 1.376 0 1.1236.52640 1.4018 1.75.92498 10.558-4.1147 19.83-4.1143 29 .0011l5.25 2.3563 5.6692-2.5955c15.141-6.9306 35.001-.525 43.311 13.969 3.94 6.88 3.86 7.737-.79 7.737-3.3764 0-4.3504-.62680-8.5716-5.5162-6.5778-7.619-11.291-9.9346-20.119-9.8851-3.85.0216-8.2969.58218-9.882 1.2457-2.6281 1.1002-2.7485 1.3584-1.3665 2.931 2.2828 2.5978 5.7493 9.8904 5.039 10.601-.34.342-2.31.623-4.375.623-3.2184 0-4.0634-.50417-5.9437-3.5466-1.2055-1.9506-2.6958-3.3786-3.3117-3.1733-.61588.20530-2.2537 2.5794-3.6397 5.2759-3.7245 7.2464-3.5596 16.998.40941 24.201 2.7357 4.9652 2.9974 5.1664 4.7082 3.6181.99631-.90165 2.0783-2.48 2.4044-3.5075.473-1.491 1.587-1.868 5.528-1.868 2.71 0 4.93.364 4.93.809 0 .44486-1.5301 3.3498-3.4002 6.4554l-3.4002 5.6466 3.275 1.0808c11.18 3.688 26.22-1.688 31.09-11.11 1.31-2.523 2.05-2.881 5.97-2.881 5.3558 0 5.5646.89685 1.6423 7.0542-3.6771 5.7723-10.24 11.624-16.046 14.308-6.8594 3.1706-21.72 3.0461-28.372-.23757l-4.754-2.344-4.75 2.271c-6.6001 3.1557-18.793 3.7007-25.914 1.1584zm20.406-8.269 3.0402-1.0598-3.3773-5.6085c-3.9669-6.5877-4.9301-10.431-4.8341-19.29.07179-6.6284 3.4028-16.085 7.1081-20.179 1.4677-1.6218 1.3715-1.8412-1.2967-2.9582-4.929-2.064-16.291-1.601-20.882.850-5.1938 2.7729-10.997 8.8325-12.951 13.523-3.5195 8.4483-1.1093 21.35 5.2601 28.159 6.0836 6.5028 19.24 9.5942 27.933 6.5637zm75.758 8.218c-3.9147-2.3934-5.3771-4.243-6.5281-8.2563-1.3752-4.7949.3962-10.14 4.5768-13.811 2.95-2.588 4.35-3.091 8.6-3.091 4.5889 0 5.468.38519 9.0466 3.9638 2.1801 2.1801 3.6756 4.4301 3.3233 5-1.078 1.7442-5.4416 1.1559-8.5674-1.1552-2.3954-1.771-3.4849-2.0083-5.6786-1.2368-6.1678 2.1691-6.8079 10.448-1.0222 13.221 2.9191 1.3991 6.4104.33099 8.0606-2.466.49191-.83375 2.177-1.2892 4.2525-1.1495 2.9566.19912 3.3508.51777 2.8169 2.277-2.1958 7.2355-12.204 10.788-18.884 6.7038zm31.388.34204c-8.1726-4.4417-4.7494-17.532 4.6544-17.799 2.9846-.0846 4.2686.52250 6.5827 3.1124 3.9706 4.4439 3.9003 9.0067-.20207 13.109-3.3956 3.3956-6.7953 3.8815-11.035 1.5773zm6.91-5.7c2.6444-2.6444.19702-7.5036-3.1352-6.2249-2.1739.83421-3.0913 4.2061-1.625 5.9729 1.4655 1.7658 3.1569 1.8553 4.7602.25201zm14.36-.29121c.45162-8.9433 2.3543-11.636 8.3415-11.806 2.9349-.08319 4.2729.49578 6.1268 2.6511 2.01 2.335 2.37 3.833 2.37 9.768v7.0107l-2.75-.31642c-2.64-.30377-2.7376-.51638-2.4386-5.3164.35137-5.6412-1.4725-9.2278-4.1668-8.1939-1.29.497-1.64 2.024-1.64 7.163v6.531h-3.1093-3.1093l.37829-7.4912zm24.84.613c0-5.8542.37578-7.4475 2.2781-9.6591 3.2919-3.8271 9.1077-3.8784 12.35-.10913 2.01 2.335 2.37 3.833 2.37 9.768v7.0107l-2.75-.31642c-2.62-.302-2.77-.611-3.25-6.816-.4359-5.6667-.75641-6.5-2.5-6.5s-2.0641.83333-2.5 6.5c-.47727 6.2045-.62501 6.5144-3.25 6.8164l-2.75.31642v-7.0107zm28.888 5.3782c-8.4-4.563-4.65-17.5 5.07-17.5 3.37 0 8.04 3.077 8.04 5.3 0 .36925-1.7968 1.8605-3.993 3.3138-3.4089 2.2559-4.2289 2.4467-5.6055 1.3042-1.4531-1.2059-1.3302-1.5642 1.243-3.6233 2.5532-2.0431 2.6384-2.2856.80551-2.29-2.6326-.0064-4.45 1.8294-4.45 4.495 0 4.3103 4.7101 5.9773 8.134 2.8787 2-1.808 4.87-1.219 4.87 1.002 0 2.2545-5.8621 6.6246-8.8267 6.5802-1.4703-.02202-3.8486-.67884-5.2852-1.4596zm24.035-1.4234c-5.0844-5.0844-3.7422-13.001 2.6574-15.675 2.9638-1.2383 3.8752-1.2383 6.839 0 2.9304 1.2244 5.5805 4.0891 5.5805 6.0323 0 .97311-5.0349.61743-7.1297-.50365-2.54-1.362-4.87.369-4.87 3.624 0 2.6213 3.5295 4.3154 5.3007 2.5443 1.62-1.622 6.7-1.386 6.7.312 0 .77611-1.3845 2.5761-3.0767 4-4.1674 3.5067-8.2737 3.3923-12-.33418zm26.58 1.728c-3.21-1.82-3.47-2.79-3.48-13.055-.02-9.737-.02-9.75 2.48-9.75 2 0 2.5.5 2.5 2.5s.5 2.5 2.5 2.5c3.437 0 3.6637 4.6956.25 5.1804-1.8439.26188-2.25.95127-2.25 3.8196s.4061 3.5577 2.25 3.8196c1.7488.24836 2.25.97236 2.25 3.25 0 2.3813-.42162 2.9248-2.25 2.9-1.2375-.01672-3.15-.54077-4.25-1.1645zm-205-29.805c-.33992-.55-.14148-1 .44098-1s1.059.45 1.059 1-.19844 1-.44098 1-.7191-.45-1.059-1zm237.82-5.75c-1.0358-3.3209-1.0066-3.5279.2553-1.8089 1.1938 1.6261 2.0213 5.5589 1.1697 5.5589-.14042 0-.78168-1.6875-1.425-3.75zm-122.27 2c-56.35-.14273-102.79-.59488-103.2-1.0048-.40995-.40989 47.72-.59899 106.95-.42023 60.817.18354 106.83.69708 105.7 1.1797-1.1.47008-3.125.77596-4.5.67974s-48.605-.29173-104.95-.43446zm-116.05-1.928c0-.55642 1.0125-1.8689 2.25-2.9167l2.25-1.905-1.99 2.5c-1.0941 1.375-2.1066 2.6875-2.25 2.9167-.14.229-.26-.039-.26-.595zm60.75-5.9839c.6875-.27741 1.8125-.27741 2.5 0s.125.50439-1.25.50439-1.9375-.22697-1.25-.50439zm31.329-.92105c.048-1.1649.28494-1.4019.60416-.60417.28887.72188.25335 1.5844-.0789 1.9167-.3323.33229-.56864-.25833-.52522-1.3125zm10 0c.048-1.1649.28494-1.4019.60416-.60417.28887.72188.25335 1.5844-.0789 1.9167-.3323.33229-.56864-.25833-.52522-1.3125zm-56.71-9.417c0-5.775.16528-8.1375.36728-5.25s.202 7.6125 0 10.5-.36728.525-.36728-5.25zm20.194 8.7069c.37553-.98622.93469-1.5412 1.2426-1.2333.30789.30789.00064 1.1148-.68278 1.7931-.98762.98027-1.1025.86540-.5598-.55980zm7.78-5.707c0-4.125.17651-5.8125.39226-3.75.21574 2.0625.21574 5.4375 0 7.5-.21575 2.0625-.39226.375-.39226-3.75zm48.319 5.1713c-1.29-1.422-1.66-3.869-1.66-11 0-7.838.29-9.462 2-11.171 4.1482-4.1482 11-1.0338 11 5 0 2.299-.45182 3-1.9336 3-1.366 0-2.0265-.80725-2.25-2.75-.22758-1.9779-.87798-2.75-2.3164-2.75-1.8518 0-2 .66667-2 9s.14815 9 2 9c1.5255 0 2.0744-.77112 2.3134-3.25.23526-2.44.79601-3.25 2.25-3.25 2.4412 0 2.662 4.5194.37994 7.7775-1.9625 2.8019-7.4107 3.021-9.7883.39376zm14.59.67382c-.79-.781-1.25-4.155-1.25-9.045 0-6.2667.29487-7.8 1.5-7.8 1.1989 0 1.5 1.4934 1.5 7.441 0 7.2958 1.2636 10.331 3.0965 7.4371.48009-.75796.87978-4.4156.8882-8.1281.009-3.9921.43979-6.75 1.0542-6.75.66144 0 .93395 3.1793.75 8.75l-.29 8.75-3.0049.29508c-1.6527.16229-3.5652-.26521-4.25-.95zm10.362-.42687c-.96-2.502-.72-3.418.89-3.418.825 0 1.5.675 1.5 1.5s.675 1.5 1.5 1.5c.93333 0 1.5-.94444 1.5-2.5 0-1.5-.57143-2.5-1.4286-2.5-3.7556 0-6.1658-7.0057-3.3714-9.8 2.4762-2.4762 7.8-.76989 7.8 2.5 0 1.8303-2.662 1.6232-3.386-.26338-.82-2.136-2.61-.830-2.61 1.903 0 1.5503.90664 2.564 3 3.3541 2.2336.84309 3 1.7723 3 3.6374 0 4.394-1.01 5.668-4.5 5.668-2.0739 0-3.5099-.58346-3.893-1.5818zm12.39-5.918c0-4.3333-.42222-7.5-1-7.5-.55 0-1-.675-1-1.5 0-1.0833 1.1111-1.5 4-1.5 3.9562 0 5.4013 1.5251 2.5 2.6384-1.1462.43982-1.5 2.3195-1.5 7.9686 0 5.905-.30 7.393-1.5 7.393s-1.5-1.5-1.5-7.5zm8.6667 6.8333c-1.19-1.184-.74-14.867.53-16.133 1.6609-1.6609 4.357-1.5001 6.2286.37143 1.8245 1.8245 2.1796 11.424.53625 14.494-1.0109 1.8889-5.8384 2.7274-7.2982 1.2676zm5.1401-7.2927c.39034-6.746-.2655-8.7347-2.3186-7.0308-1.5316 1.2711-2.1616 10.983-.80067 12.344 1.6422 1.6423 2.8343-.38837 3.1193-5.3136zm4.19-1.113c0-7.9321.20969-9.0327 1.6671-8.75.97623.18933 2.2524 2.1882 3.0792 4.8233.77665 2.475 1.6548 5.175 1.9513 6 .30078.83669 1.2964-1.1533 2.2514-4.5 1.1122-3.8977 2.2971-6.1133 3.3816-6.3233 1.46-.283 1.67.813 1.67 8.75 0 7.398-.28 9.073-1.5 9.073-1.0442 0-1.5384-1.1395-1.6264-3.75l-.12637-3.75-1.05 3.75c-.66 2.391-1.64 3.75-2.69 3.75-1.0502 0-2.0279-1.3593-2.6973-3.75l-1.05-3.75-.12637 3.75c-.08 2.611-.58 3.75-1.62 3.75-1.22 0-1.5-1.675-1.5-9.073zm16 .073v-9h4c2.8889 0 4 .41667 4 1.5 0 1.0076-1.0077 1.5-3.0696 1.5-2.6112 0-3.0218.33594-2.75 2.25.2288 1.611 1.1005 2.3399 3.0696 2.5664 3.75.432 3.49 2.184-.32 2.184-2.7552 0-3.0343.27908-2.75 2.75.24853 2.16.90645 2.8179 3.0664 3.0664 4.23.487 3.26 2.184-1.25 2.184h-4v-9zm10 0v-9h2.9286c5.0687 0 7.5391 4.389 5.0687 9.0051-.67028 1.2524-.67028 2.079 0 2.4933 1.64 1.015 1.22 6.502-.50 6.502-.99 0-1.5-.988-1.5-2.893 0-1.591-.63-3.135-1.4-3.431-1.93-.739-2.6.163-2.6 3.491 0 1.558-.45 2.833-1 2.833-.59259 0-1-3.6667-1-9zm5.8164-3.2586c.25-2.206-.09-2.741-1.75-2.741-1.64 0-2.07.634-2.07 3.073 0 2.3867.39095 2.9992 1.75 2.7414 1.0555-.20016 1.8756-1.4199 2.0664-3.0733zm-148.52 5.259c0-3.025.18747-4.2625.41659-2.75.22913 1.5125.22913 3.9875 0 5.5-.22912 1.5125-.41659.275-.41659-2.75zm3.0204-1c0-3.575.1815-5.0375.40333-3.25.22182 1.7875.22182 4.7125 0 6.5-.22183 1.7875-.40333.325-.40333-3.25zm35.68-1.927c0-5.7559-.29578-7.004-1.75-7.384-1.3169-.34414-1.1932-.48603.5-.57332 2.1436-.11052 2.25.23852 2.25 7.384 0 4.125-.225 7.5-.5 7.5s-.5-3.117-.5-6.9267zm-32.921 4.3433c.048-1.1649.28494-1.4019.60416-.60417.28887.72188.25335 1.5844-.0789 1.9167-.3323.33229-.56864-.25833-.52522-1.3125zm17-3c.048-1.1649.28494-1.4019.60416-.60417.28887.72188.25335 1.5844-.0789 1.9167-.3323.33229-.56864-.25833-.52522-1.3125zm5.08-.416c0-1.375.22698-1.9375.50439-1.25s.27741 1.8125 0 2.5-.50439.125-.50439-1.25zm2.9211.41667c.048-1.1649.28494-1.4019.60416-.60417.28887.72188.25335 1.5844-.0789 1.9167-.3323.33229-.56864-.25833-.52522-1.3125zm-8-4c.048-1.1649.28494-1.4019.60416-.60417.28887.72188.25335 1.5844-.0789 1.9167-.3323.33229-.56864-.25833-.52522-1.3125zm-17.65-2.3432c0-1.0596.35357-1.7081.78572-1.441.43.267.78 1.133.78 1.926s-.35 1.441-.79 1.441c-.43215 0-.78572-.86696-.78572-1.9266zm-7.2544-1.6762c.89617-.89617 2.1089-1.4647 2.6949-1.2633.58604.20134-.1472.93457-1.6294 1.6294-2.4906 1.1676-2.5714 1.1398-1.0655-.36607zm11.84.352c-.0128-1.4683.82972-1.7219 5.2347-1.5753l5.25.17471-4.4836.39420c-2.466.21681-4.8216.92569-5.2347 1.5753-.49969.78574-.75624.59530-.76643-.56891zm15.23-1.439c.9625-.25153 2.5375-.25153 3.5 0s.175.45732-1.75.45732-2.7125-.20580-1.75-.45732zm-187-4.811c.011099-2.2.21588-2.9823.45508-1.7383.23919 1.2439.23011 3.0439-.020181 4-.2503.956-.4460-.062-.4349-2.262zm142.75-1c0-2.4548.1311-2.4965 7.25-2.3041l7.25.19586-6.75.34983c-4.8809.25296-6.75.72946-6.75 1.7208 0 .75404.5625 1.598 1.25 1.8754.74674.30132.54544.53617-.5.58333-1.22.054-1.75-.678-1.75-2.422zm11.812 1.8169c.72187-.28887 1.5844-.25334 1.9167.07895.33229.33229-.25834.56864-1.3125.52522-1.165-.04798-1.4019-.28494-.60417-.60417z"/>
  <path id="path3358" fill="#606060" d="m60.336 79.209c-20.03-7.151-29.215-30.522-19.304-49.118 6.422-12.048 17.118-18.412 30.988-18.436 6.0108-.01034 8.6694.51346 13.25 2.6105l5.73 2.623 5.669-2.595c15.141-6.9306 35.001-.525 43.311 13.969 3.94 6.88 3.86 7.737-.79 7.737-3.3764 0-4.3504-.62680-8.5716-5.5162-6.5778-7.619-11.291-9.9346-20.119-9.8851-3.85.0216-8.2969.58218-9.882 1.2457-2.6281 1.1002-2.7485 1.3584-1.3665 2.931 2.2828 2.5978 5.7493 9.8904 5.039 10.601-.34.342-2.31.623-4.375.623-3.2184 0-4.0634-.50417-5.9437-3.5466-1.2055-1.9506-2.6958-3.3786-3.3117-3.1733-.61588.20530-2.2537 2.5794-3.6397 5.2759-3.7245 7.2464-3.5596 16.998.40941 24.201 2.7357 4.9652 2.9974 5.1664 4.7082 3.6181.99631-.90165 2.0783-2.48 2.4044-3.5075.473-1.491 1.587-1.868 5.528-1.868 2.71 0 4.93.364 4.93.809 0 .44486-1.5301 3.3498-3.4002 6.4554l-3.4002 5.6466 3.275 1.0808c11.18 3.688 26.22-1.688 31.09-11.11 1.31-2.523 2.05-2.881 5.97-2.881 5.3558 0 5.5646.89685 1.6423 7.0542-3.6771 5.7723-10.24 11.624-16.046 14.308-6.8594 3.1706-21.72 3.0461-28.372-.23757l-4.754-2.344-4.75 2.271c-6.6001 3.1557-18.793 3.7007-25.914 1.1584zm20.406-8.269 3.0402-1.0598-3.3773-5.6085c-3.9669-6.5877-4.9301-10.431-4.8341-19.29.07179-6.6284 3.4028-16.085 7.1081-20.179 1.4677-1.6218 1.3715-1.8412-1.2967-2.9582-4.929-2.064-16.291-1.601-20.882.850-5.1938 2.7729-10.997 8.8325-12.951 13.523-3.5195 8.4483-1.1093 21.35 5.2601 28.159 6.0836 6.5028 19.24 9.5942 27.933 6.5637zm75.758 8.218c-3.9147-2.3934-5.3771-4.243-6.5281-8.2563-1.3752-4.7949.3962-10.14 4.5768-13.811 2.95-2.588 4.35-3.091 8.6-3.091 4.5889 0 5.468.38519 9.0466 3.9638 2.1801 2.1801 3.6756 4.4301 3.3233 5-1.078 1.7442-5.4416 1.1559-8.5674-1.1552-2.3954-1.771-3.4849-2.0083-5.6786-1.2368-6.1678 2.1691-6.8079 10.448-1.0222 13.221 2.9191 1.3991 6.4104.33099 8.0606-2.466.49191-.83375 2.177-1.2892 4.2525-1.1495 2.9566.19912 3.3508.51777 2.8169 2.277-2.1958 7.2355-12.204 10.788-18.884 6.7038zm31.388.34204c-8.1726-4.4417-4.7494-17.532 4.6544-17.799 2.9846-.0846 4.2686.52250 6.5827 3.1124 3.9706 4.4439 3.9003 9.0067-.20207 13.109-3.3956 3.3956-6.7953 3.8815-11.035 1.5773zm6.91-5.7c2.6444-2.6444.19702-7.5036-3.1352-6.2249-2.1739.83421-3.0913 4.2061-1.625 5.9729 1.4655 1.7658 3.1569 1.8553 4.7602.25201zm14.36-.29121c.45162-8.9433 2.3543-11.636 8.3415-11.806 2.9349-.08319 4.2729.49578 6.1268 2.6511 2.01 2.335 2.37 3.833 2.37 9.768v7.0107l-2.75-.31642c-2.64-.30377-2.7376-.51638-2.4386-5.3164.35137-5.6412-1.4725-9.2278-4.1668-8.1939-1.29.497-1.64 2.024-1.64 7.163v6.531h-3.1093-3.1093l.37829-7.4912zm24.84.613c0-5.8542.37578-7.4475 2.2781-9.6591 3.2919-3.8271 9.1077-3.8784 12.35-.10913 2.01 2.335 2.37 3.833 2.37 9.768v7.0107l-2.75-.31642c-2.62-.302-2.77-.611-3.25-6.816-.4359-5.6667-.75641-6.5-2.5-6.5s-2.0641.83333-2.5 6.5c-.47727 6.2045-.62501 6.5144-3.25 6.8164l-2.75.31642v-7.0107zm28.888 5.3782c-8.4-4.563-4.65-17.5 5.07-17.5 3.37 0 8.04 3.077 8.04 5.3 0 .36925-1.7968 1.8605-3.993 3.3138-3.4089 2.2559-4.2289 2.4467-5.6055 1.3042-1.4531-1.2059-1.3302-1.5642 1.243-3.6233 2.5532-2.0431 2.6384-2.2856.80551-2.29-2.6326-.0064-4.45 1.8294-4.45 4.495 0 4.3103 4.7101 5.9773 8.134 2.8787 2-1.808 4.87-1.219 4.87 1.002 0 2.2545-5.8621 6.6246-8.8267 6.5802-1.4703-.02202-3.8486-.67884-5.2852-1.4596zm24.035-1.4234c-5.0844-5.0844-3.7422-13.001 2.6574-15.675 2.9638-1.2383 3.8752-1.2383 6.839 0 2.9304 1.2244 5.5805 4.0891 5.5805 6.0323 0 .97311-5.0349.61743-7.1297-.50365-2.54-1.362-4.87.369-4.87 3.624 0 2.6213 3.5295 4.3154 5.3007 2.5443 1.62-1.622 6.7-1.386 6.7.312 0 .77611-1.3845 2.5761-3.0767 4-4.1674 3.5067-8.2737 3.3923-12-.33418zm26.58 1.728c-3.21-1.82-3.47-2.79-3.48-13.055-.02-9.737-.02-9.75 2.48-9.75 2 0 2.5.5 2.5 2.5s.5 2.5 2.5 2.5c3.437 0 3.6637 4.6956.25 5.1804-1.8439.26188-2.25.95127-2.25 3.8196s.4061 3.5577 2.25 3.8196c1.7488.24836 2.25.97236 2.25 3.25 0 2.3813-.42162 2.9248-2.25 2.9-1.2375-.01672-3.15-.54077-4.25-1.1645zm-83.85-43.634c-1.28-1.422-1.65-3.869-1.65-11 0-7.838.29-9.462 2-11.171 4.1482-4.1482 11-1.0338 11 5 0 2.299-.45182 3-1.9336 3-1.366 0-2.0265-.80725-2.25-2.75-.22758-1.9779-.87798-2.75-2.3164-2.75-1.8518 0-2 .66667-2 9s.14815 9 2 9c1.5255 0 2.0744-.77112 2.3134-3.25.23526-2.44.79601-3.25 2.25-3.25 2.4412 0 2.662 4.5194.37994 7.7775-1.9625 2.8019-7.4107 3.021-9.7883.39376zm14.59.67382c-.78-.781-1.24-4.155-1.24-9.045 0-6.2667.29487-7.8 1.5-7.8 1.1989 0 1.5 1.4934 1.5 7.441 0 7.2958 1.2636 10.331 3.0965 7.4371.48009-.75796.87978-4.4156.8882-8.1281.009-3.9921.43979-6.75 1.0542-6.75.66144 0 .93395 3.1793.75 8.75l-.29 8.75-3.0049.29508c-1.6527.16229-3.5652-.26521-4.25-.95zm10.362-.42687c-.95-2.502-.71-3.418.90-3.418.825 0 1.5.675 1.5 1.5s.675 1.5 1.5 1.5c.93333 0 1.5-.94444 1.5-2.5 0-1.5-.57143-2.5-1.4286-2.5-3.7556 0-6.1658-7.0057-3.3714-9.8 2.4762-2.4762 7.8-.76989 7.8 2.5 0 1.8303-2.662 1.6232-3.386-.26338-.82-2.136-2.61-.830-2.61 1.903 0 1.5503.90664 2.564 3 3.3541 2.2336.84309 3 1.7723 3 3.6374 0 4.394-1.01 5.668-4.5 5.668-2.0739 0-3.5099-.58346-3.893-1.5818zm12.4-5.918c0-4.3333-.42222-7.5-1-7.5-.55 0-1-.675-1-1.5 0-1.0833 1.1111-1.5 4-1.5 3.9562 0 5.4013 1.5251 2.5 2.6384-1.1462.43982-1.5 2.3195-1.5 7.9686 0 5.905-.30 7.393-1.5 7.393s-1.5-1.5-1.5-7.5zm8.6667 6.8333c-1.19-1.184-.74-14.867.53-16.133 1.6609-1.6609 4.357-1.5001 6.2286.37143 1.8245 1.8245 2.1796 11.424.53625 14.494-1.0109 1.8889-5.8384 2.7274-7.2982 1.2676zm5.1401-7.2927c.39034-6.746-.2655-8.7347-2.3186-7.0308-1.5316 1.2711-2.1616 10.983-.80067 12.344 1.6422 1.6423 2.8343-.38837 3.1193-5.3136zm4.19-1.113c0-7.9321.20969-9.0327 1.6671-8.75.97623.18933 2.2524 2.1882 3.0792 4.8233.77665 2.475 1.6548 5.175 1.9513 6 .30078.83669 1.2964-1.1533 2.2514-4.5 1.1122-3.8977 2.2971-6.1133 3.3816-6.3233 1.46-.283 1.67.813 1.67 8.75 0 7.398-.28 9.073-1.5 9.073-1.0442 0-1.5384-1.1395-1.6264-3.75l-.12637-3.75-1.05 3.75c-.66 2.391-1.64 3.75-2.69 3.75-1.0502 0-2.0279-1.3593-2.6973-3.75l-1.05-3.75-.12637 3.75c-.08 2.611-.58 3.75-1.62 3.75-1.22 0-1.5-1.675-1.5-9.073zm16 .073v-9h4c2.8889 0 4 .41667 4 1.5 0 1.0076-1.0077 1.5-3.0696 1.5-2.6112 0-3.0218.33594-2.75 2.25.2288 1.611 1.1005 2.3399 3.0696 2.5664 3.75.432 3.49 2.184-.32 2.184-2.7552 0-3.0343.27908-2.75 2.75.24853 2.16.90645 2.8179 3.0664 3.0664 4.23.487 3.26 2.184-1.25 2.184h-4v-9zm10 0v-9h2.9286c5.0687 0 7.5391 4.389 5.0687 9.0051-.67028 1.2524-.67028 2.079 0 2.4933 1.64 1.015 1.22 6.502-.50 6.502-.99 0-1.5-.988-1.5-2.893 0-1.591-.63-3.135-1.4-3.431-1.93-.739-2.6.163-2.6 3.491 0 1.558-.45 2.833-1 2.833-.59259 0-1-3.6667-1-9zm5.8164-3.2586c.25-2.206-.09-2.741-1.75-2.741-1.64 0-2.07.634-2.07 3.073 0 2.3867.39095 2.9992 1.75 2.7414 1.0555-.20016 1.8756-1.4199 2.0664-3.0733z"/>
  <path id="path3356" fill="#030303" d="m62.929 79.696c-30.633-8.685-34.881-49.571-6.693-64.421 4.736-2.495 6.267-2.774 15.264-2.774 8.1422-.000627 10.869.40096 14.679 2.1616l4.6791 2.1624 6.2537-2.526c8.4898-3.4292 20.733-3.0162 28.48.96069 5.736 2.9445 14.64 12.097 16.243 16.698l1.06 3.042h-4.2555c-3.8937 0-4.5196-.37467-7.3622-4.4076-6.0473-8.5794-18.066-12.592-28.754-9.5991-2.48.697-4.52 1.427-4.52 1.622 0 .19526 1.35 2.549 3 5.2306s3 5.3884 3 6.015c0 .67480-1.733 1.1368-4.25 1.1331-3.6966-.0055-4.478-.40694-6.0011-3.083-.96311-1.6922-2.3131-2.9069-3-2.6994-.68689.20748-2.4864 2.8005-3.9989 5.7623-3.8384 7.5164-3.8347 15.722.0106 23.082 1.5183 2.9064 3.2687 5.4538 3.8897 5.6607.62099 0.207 2.1154-1.2196 3.321-3.1702 1.906-3.086 2.7-3.547 6.108-3.547 2.16 0 3.92.468 3.92 1.04 0 1.5172-3.7982 8.7174-4.9857 9.4513-2.7492 1.6991.90711 3.9246 8.2588 5.0271 7.0257 1.0536 14.902-1.666 20.798-7.1818 2.6732-2.5005 5.1311-5.3991 5.4619-6.4414.47-1.485 1.56-1.895 5.04-1.895 2.4379 0 4.4284.3375 4.4232.75-.0256 2.0431-6.2822 11.299-9.6169 14.227-6.7868 5.9589-13.711 8.477-23.376 8.5016-7.17.018-9.33-.387-13.752-2.576l-5.248-2.597-4.832 2.391c-5.9467 2.943-16.66 3.8646-23.239 1.9992zm18.426-8.8527c1.1797-.61290 2.3028-1.2488 2.4958-1.4132.193-.164-.773-1.791-2.147-3.614-7.599-10.086-7.674-27.669-.165-39.045 1.354-2.05 2.461-3.904 2.461-4.12 0-1.259-9.865-2.85-14.862-2.397-9.507.862-16.466 5.571-20.875 14.126-3.477 6.748-3.717 17.076-.537 23.12 5.2031 9.8891 15.919 16.042 26.129 15.003 2.9453-.29971 6.3203-1.0464 7.5-1.6593zm76.679 8.8823c-7.3271-2.5917-10.715-14.049-5.9463-20.111 4.2223-5.3677 11.199-7.0688 16.901-4.1206 2.7548 1.4246 6.011 5.0693 6.011 6.7282 0 1.4143-6.7311.80642-8-.72251-1.8605-2.2417-6.3432-1.8281-8.8257.81445-3.0767 3.275-2.872 7.9916.46055 10.613 3.3018 2.5972 5.406 2.6149 8.638.07258 1.3984-1.1 3.9457-2 5.6605-2 3.1064 0 3.1125.01058 1.6434 2.8515-2.8669 5.544-10.157 8.1328-16.542 5.8743zm31.97.566c-5-1.838-7.58-7.009-5.95-11.932 1.35-4.108 4.38-6.359 8.54-6.359 9.4428 0 12.469 13.373 3.9416 17.419-3.5204 1.6705-4.1335 1.7524-6.5292.87147zm5.5-8.6816c0-3.8269-2.82-5.7176-5.1109-3.4267-1.1352 1.1352-1.4415 2.4728-.98388 4.2961.54379 2.1666 1.1578 2.5908 3.3796 2.3346 2.2552-.26003 2.7151-.80278 2.7151-3.2041zm69 8.4457c-4.9263-2.0163-7.1429-7.5803-5.0322-12.632 2.4475-5.8577 9.2707-7.29 14.226-2.9864 2.7721 2.4073 2.7818 2.4556.80576 4.0203-4.0982 3.2452-7.3471 4.5996-8.1024 3.3776-.40125-.64925.23302-1.9266 1.4432-2.9066 2.65-2.148 2.73-2.928.28-2.928-2.6562 0-4.3216 2.4022-3.9447 5.6895.25786 2.2488.88947 2.8754 3.1607 3.1354 1.6086.18416 3.604-.36787 4.6054-1.2741 1.52-1.368 5.06-1.283 5.06.122 0 1.8362-2.7134 4.7274-5.5484 5.9119-3.8084 1.5913-4.1549 1.6147-6.9516.46998zm24.829-.51240c-5.8724-2.5545-7.1384-9.2382-2.7398-14.466 4.1423-4.9229 11.21-4.0948 14.283 1.6733 1.1174 2.0978.99721 2.25-1.7776 2.25-1.6369 0-3.2543-.45-3.5942-1-1.0538-1.7051-4.3755-1.1011-5.5 1-.76082 1.4216-.76015 2.5796.002 4.0043.94887 1.773 1.7166 1.9287 6.6514 1.3487 5.5412-.65126 5.5706-.64065 4.382 1.5803-.65816 1.2298-2.721 2.8729-4.584 3.6513-3.9789 1.6625-3.1927 1.6672-7.1229-.04242zm-80.33-4.394c0-5.9888 1.6223-10.877 4.0394-12.17 3.3041-1.7683 7.9088-1.1215 10.506 1.4757 2.1061 2.1061 2.4546 3.3838 2.4546 9 0 6.315-.09 6.545-2.5 6.545-2.3473 0-2.5009-.32075-2.5153-5.25-.0178-6.0834-.97107-8.0904-3.6045-7.5884-1.5606.29752-1.9308 1.4189-2.1779 6.5984-.29 6.177-.33 6.24-3.25 6.24-2.86 0-2.95-.145-2.95-4.851zm25-.69888c0-5.9037 1.8843-10.808 4.5448-11.829 3.052-1.1712 7.2348-.62027 9.5549 1.2585 1.9448 1.5748 2.3866 3.0347 2.7236 9 .40 7.079.39 7.12-2.16 7.12-2.4126 0-2.5805-.33126-2.8628-5.6465-.20953-3.945-.80199-5.9616-1.9661-6.692-2.93-1.843-4.83.890-4.83 6.96 0 5.07-.14 5.378-2.5 5.378-2.37 0-2.5-.297-2.5-5.55zm77.655 3.7209c-1.29-1.422-1.66-3.869-1.66-11 0-9.116.02-9.171 2.5-9.171 1.8333 0 2.5.53333 2.5 2s.66667 2 2.5 2c2 0 2.5.5 2.5 2.5s-.5 2.5-2.5 2.5c-2.25 0-2.5.4-2.5 4s.25 4 2.5 4c2 0 2.5.5 2.5 2.5 0 2.1684-.44367 2.5-3.345 2.5-1.9706 0-4.025-.75140-5-1.8287zm-81.79-41.823c-.85677-1.0313-1.5006-4.8925-1.7136-10.277-.28917-7.3102-.0513-8.9826 1.5604-10.973 3.77-4.658 11.28-1.654 11.28 4.513 0 3.604-3.7647 3.2793-4.1836-.36078-.22836-1.9847-.95328-2.8403-2.6049-3.0746-2.2614-.32076-2.2851-.21426-2 9 .27 8.561.45 9.324 2.29 9.324 1.5255 0 2.0744-.77112 2.3134-3.25.23526-2.44.79601-3.25 2.25-3.25 2.4412 0 2.662 4.5194.37994 7.7775-1.8976 2.7092-7.5158 3.0442-9.5709.57057zm14.794.98527c-1.08-1.089-.77-17.333.34-17.333.58409 0 1 3.3578 1 8.0733 0 7.1495.20025 8.0351 1.75 7.7392 1.4556-.27796 1.7991-1.6359 2.0421-8.0733.16-4.256.73-7.739 1.25-7.739 1.4208 0 1.1995 15.358-.24206 16.8-1.2935 1.2935-5.0468 1.6199-6.1333.53333zm10.398-1.2127c-1.3169-2.4607.3925-3.9132 1.7502-1.4872 1.1819 2.112 4.4639 1.0482 4.0092-1.2995-.17815-.91966-1.6739-2.4169-3.3239-3.3271-1.8986-1.0474-3.1117-2.5913-3.3043-4.2052-.31-2.678 2-5.801 4.31-5.801 1.544 0 4.5 2.6744 4.5 4.0714 0 1.4995-2.0108 1.064-2.6384-.57143-.31-.825-1.15-1.5-1.86-1.5-1.6002 0-2.6298 2.498-1.8583 4.5086.3184.82975 1.6582 1.7795 2.9773 2.1106 2.7275.68457 4.2372 4.7926 2.6774 7.2856-1.5394 2.4604-5.96 2.5923-7.2318.21584zm12.94-5.651c0-5.7721-.3504-7.6658-1.5-8.107-2.7-1.036-1.58-2.362 2-2.362 1.925 0 3.5.45 3.5 1s-.45 1-1 1c-.58333 0-1 3.3333-1 8s-.41667 8-1 8c-.57815 0-1-3.1771-1-7.5314zm8.243 6.3744c-.74-.748-1.24-3.961-1.24-8.064 0-6.284.19464-6.9101 2.4704-7.947 4.351-1.9825 5.6552.24234 5.3189 9.0735-.277 7.2728-.39562 7.6074-2.7963 7.8879-1.3789.16114-3.0664-.26636-3.75-.95zm4.56-7.593c-.23-5.202-.64-6.75-1.8-6.75-1.1095 0-1.5799 1.4009-1.8068 5.3808-.36 6.303.16 8.119 2.32 8.119 1.3095 0 1.5269-1.1451 1.2814-6.75zm5.2-.333c0-10.579 1.4581-11.573 3.9362-2.6828 1.52 5.453 3.06 8.394 3.06 5.837 0-2.634 3.18-12.071 4.07-12.071.51 0 .93 4.05.93 9 0 5.3333-.40741 9-1 9-.55 0-1.0355-1.9125-1.079-4.25l-.0789-4.25-1.5211 4.3c-1.8074 5.1096-3.2336 5.005-4.8924-.35874l-1.22-3.941-.11 4.25c-.05 2.338-.55 4.25-1.1 4.25-.59327 0-1-3.6944-1-9.0833zm15 .083v-9h3.441c1.8925 0 3.7191.45 4.059 1 .36058.58342-.65628 1-2.441 1-2.73 0-3.06.320-3.06 3 0 2.6667.33333 3 3 3 1.65 0 3 .45 3 1s-1.35 1-3 1c-2.6667 0-3 .33333-3 3s.33333 3 3 3c1.65 0 3 .45 3 1s-1.8 1-4 1h-4v-9zm10 0c0-8.4288.1311-9 2.0657-9 4.8547 0 5.8876 1.5926 5.8185 8.971-.0357 3.8103.22732 7.4006.58444 7.9784.36.578-.03 1.051-.85 1.051-.95 0-1.61-1.171-1.81-3.242-.20-2.135-.91-3.355-2.06-3.573-1.4-.266-1.75.379-1.75 3.242 0 1.965-.45 3.573-1 3.573-.59259 0-1-3.6667-1-9zm5.8134-3.2418c-.20-2.135-.91-3.355-2.06-3.573-1.4-.266-1.75.379-1.75 3.242 0 2.943.36 3.573 2.06 3.573 1.7246 0 2.0119-.53224 1.75-3.2418z"/>
 </g>
</svg>
